<svg xmlns="http://www.w3.org/2000/svg" viewBox="0 0 900 200"><title>logo</title><rect x="-92" y="-57" width="1174" height="286" fill="#324775"/><path d="M335,66.34v6a21.43,21.43,0,0,1,6.34-5.4,16.74,16.74,0,0,1,8-1.82,18.41,18.41,0,0,1,9,2.29,16.1,16.1,0,0,1,6.41,6.37A17.42,17.42,0,0,1,367,82.38a16.57,16.57,0,0,1-5.11,12.21A18,18,0,0,1,335,92.44v20h8a2.53,2.53,0,0,1,1.69.45,1.62,1.62,0,0,1,0,2.38,2.42,2.42,0,0,1-1.69.48H327.21a2.51,2.51,0,0,1-1.7-.46,1.67,1.67,0,0,1,0-2.4,2.56,2.56,0,0,1,1.7-.45h4.45V69.69h-4.45a2.45,2.45,0,0,1-1.7-.48A1.58,1.58,0,0,1,325,68a1.55,1.55,0,0,1,.51-1.18,2.45,2.45,0,0,1,1.7-.47Zm28.7,16a13.23,13.23,0,0,0-4.16-9.79,14.73,14.73,0,0,0-20.37,0,13.59,13.59,0,0,0,0,19.59,14.7,14.7,0,0,0,20.35,0A13.28,13.28,0,0,0,363.68,82.38Z" fill="#fff"/><path d="M401.62,51V97.17h13a2.65,2.65,0,0,1,1.74.45,1.52,1.52,0,0,1,.51,1.2,1.56,1.56,0,0,1-.51,1.19,2.59,2.59,0,0,1-1.74.47H385.3a2.5,2.5,0,0,1-1.7-.47,1.56,1.56,0,0,1-.51-1.19,1.52,1.52,0,0,1,.51-1.2,2.56,2.56,0,0,1,1.7-.45h13V54.35h-9.54a2.6,2.6,0,0,1-1.72-.47,1.58,1.58,0,0,1-.53-1.22,1.56,1.56,0,0,1,.51-1.19,2.57,2.57,0,0,1,1.74-.47Z" fill="#fff"/><path d="M518.75,69.69V68.58a2.51,2.51,0,0,1,.47-1.73,1.54,1.54,0,0,1,1.18-.51,1.58,1.58,0,0,1,1.22.51,2.5,2.5,0,0,1,.48,1.73v7.49a2.73,2.73,0,0,1-.5,1.74,1.64,1.64,0,0,1-2.32.06,2.35,2.35,0,0,1-.53-1.52q-.24-2.8-3.69-5.32t-9.28-2.52q-7.38,0-11.2,4.61a16.08,16.08,0,0,0-3.83,10.56A14.32,14.32,0,0,0,495,94.29a14.84,14.84,0,0,0,10.92,4.18,23.36,23.36,0,0,0,7.87-1.42A19.74,19.74,0,0,0,521,92.48a2.31,2.31,0,0,1,1.46-.79,1.55,1.55,0,0,1,1.13.45,1.53,1.53,0,0,1,.45,1.12q0,1.71-4,4.3a25.49,25.49,0,0,1-14.31,4.22,17.85,17.85,0,0,1-13.15-5.11,17.47,17.47,0,0,1-5.15-13A18.05,18.05,0,0,1,506,65.15,18.7,18.7,0,0,1,518.75,69.69Z" fill="#fff"/><path d="M575.34,84.2H541.59A16.06,16.06,0,0,0,547,94.55a16.47,16.47,0,0,0,11.18,3.92,27.14,27.14,0,0,0,7.77-1.22A20.15,20.15,0,0,0,572.54,94a2.26,2.26,0,0,1,1.3-.59,1.47,1.47,0,0,1,1.1.5,1.59,1.59,0,0,1,.48,1.16,1.84,1.84,0,0,1-.63,1.3q-1.9,2-6.73,3.69a29.47,29.47,0,0,1-9.91,1.71,19.48,19.48,0,0,1-14.21-5.58,18.2,18.2,0,0,1-5.7-13.5,16.61,16.61,0,0,1,5.34-12.38,18.3,18.3,0,0,1,13.23-5.17,18,18,0,0,1,13.36,5.31Q575.42,75.76,575.34,84.2ZM572,80.85a14.41,14.41,0,0,0-5.19-8.91,16.32,16.32,0,0,0-20,0,14.51,14.51,0,0,0-5.2,8.95Z" fill="#fff"/><path d="M332.6,135.7a.4.4,0,0,1,.4-.4h8.52a.4.4,0,0,1,.41.4v1.2a.4.4,0,0,1-.41.4h-6.73v4.92h5.69a.42.42,0,0,1,.4.41v1.17a.41.41,0,0,1-.4.4h-5.69v5.61a.41.41,0,0,1-.4.4H333a.4.4,0,0,1-.4-.4Z" fill="#fff"/><path d="M357.44,135.7a.4.4,0,0,1,.41-.4h5.79a4.59,4.59,0,0,1,4.64,4.56,4.72,4.72,0,0,1-3.15,4.32l2.92,5.41a.4.4,0,0,1-.36.62H366a.4.4,0,0,1-.34-.19l-2.84-5.65h-3.21v5.44a.42.42,0,0,1-.41.4h-1.38a.4.4,0,0,1-.41-.4Zm6,6.84a2.65,2.65,0,0,0,2.6-2.64,2.62,2.62,0,0,0-2.6-2.54h-3.79v5.18Z" fill="#fff"/><path d="M382.39,149.65l6.54-14.33a.52.52,0,0,1,.36-.24h.22a.5.5,0,0,1,.36.24l6.5,14.33a.38.38,0,0,1-.37.56h-1.34a.51.51,0,0,1-.49-.32L392.85,147h-7c-.43,1-.88,1.94-1.3,2.92a.55.55,0,0,1-.49.32h-1.34A.39.39,0,0,1,382.39,149.65Zm9.65-4.51-2.62-5.84h-.1l-2.6,5.84Z" fill="#fff"/><path d="M412.9,135.4a.45.45,0,0,1,.39-.32h.34a.42.42,0,0,1,.36.24l4.45,10.88h.09L423,135.32a.4.4,0,0,1,.36-.24h.34a.42.42,0,0,1,.38.32l2.63,14.32a.37.37,0,0,1-.39.49H424.9a.45.45,0,0,1-.41-.3l-1.57-9.52h-.07l-3.83,9.8a.37.37,0,0,1-.36.23h-.39a.39.39,0,0,1-.36-.23l-3.86-9.8H414l-1.53,9.52a.43.43,0,0,1-.39.3h-1.38a.39.39,0,0,1-.41-.49Z" fill="#fff"/><path d="M442.59,135.7a.4.4,0,0,1,.4-.4h8.52a.4.4,0,0,1,.41.4v1.2a.4.4,0,0,1-.41.4h-6.73v4.35h5.69a.41.41,0,0,1,.4.4v1.19a.4.4,0,0,1-.4.41h-5.69v4.58h6.73a.4.4,0,0,1,.41.4v1.18a.4.4,0,0,1-.41.4H443a.4.4,0,0,1-.4-.4Z" fill="#fff"/><path d="M466.56,135.81a.37.37,0,0,1,.38-.51h1.43a.43.43,0,0,1,.38.3l2.58,9.77h.08l3.47-10.05a.4.4,0,0,1,.37-.24h.38a.38.38,0,0,1,.36.24l3.52,10.05h.08l2.54-9.77a.43.43,0,0,1,.38-.3h1.43a.37.37,0,0,1,.38.51l-4,14.31a.43.43,0,0,1-.39.3h-.34a.41.41,0,0,1-.36-.23l-3.75-10.59h-.11l-3.68,10.59a.41.41,0,0,1-.36.23H471a.42.42,0,0,1-.39-.3Z" fill="#fff"/><path d="M506.36,135.08a7.67,7.67,0,1,1-7.65,7.69A7.66,7.66,0,0,1,506.36,135.08Zm0,13.21a5.54,5.54,0,1,0-5.52-5.52A5.53,5.53,0,0,0,506.36,148.29Z" fill="#fff"/><path d="M529.86,135.7a.4.4,0,0,1,.4-.4h5.8a4.59,4.59,0,0,1,4.64,4.56,4.72,4.72,0,0,1-3.15,4.32l2.92,5.41a.4.4,0,0,1-.36.62h-1.67a.41.41,0,0,1-.34-.19l-2.83-5.65h-3.22v5.44a.41.41,0,0,1-.4.4h-1.39a.4.4,0,0,1-.4-.4Zm6,6.84a2.65,2.65,0,0,0,2.6-2.64,2.62,2.62,0,0,0-2.6-2.54H532.1v5.18Z" fill="#fff"/><path d="M556.81,135.81a.51.51,0,0,1,.52-.51h1.23a.51.51,0,0,1,.51.51v5.9l6-6.2a.51.51,0,0,1,.4-.21h1.6a.44.44,0,0,1,.3.76l-6.16,6.27,6.52,7.18a.45.45,0,0,1-.38.7h-1.71a.47.47,0,0,1-.38-.15l-6.2-7v6.63a.51.51,0,0,1-.51.51h-1.23a.51.51,0,0,1-.52-.51Z" fill="#fff"/><path d="M445.92,59.64a11.25,11.25,0,0,1,1.41,8.82,11.36,11.36,0,0,1-13.85,8.46,11.8,11.8,0,0,1-8.6-14.09,11.43,11.43,0,0,1,13.87-8.47A11.24,11.24,0,0,1,445.92,59.64Zm-2.3,1.4a8.62,8.62,0,0,0-5.5-4,8.71,8.71,0,0,0-10.62,6.48,9,9,0,0,0,6.6,10.8,8.71,8.71,0,0,0,10.62-6.48A8.66,8.66,0,0,0,443.62,61Zm19.54,3.39-23.9,27.9a3.6,3.6,0,0,1-.71.64,1.17,1.17,0,0,1-1,.11,1.31,1.31,0,0,1-.81-.6,1.49,1.49,0,0,1-.2-.93,2.32,2.32,0,0,1,.6-1l23.89-27.9a4,4,0,0,1,.75-.67,1.1,1.1,0,0,1,.92-.09,1.34,1.34,0,0,1,.82.61,1.61,1.61,0,0,1,.2.93A2.63,2.63,0,0,1,463.16,64.43Zm11,19.08a11.56,11.56,0,0,1-3.78,15.94,11,11,0,0,1-8.7,1.31,11.19,11.19,0,0,1-7.17-5.25,11.3,11.3,0,0,1-1.44-8.8,11.42,11.42,0,0,1,13.9-8.49A11.3,11.3,0,0,1,474.12,83.51Zm-2.33,1.43a8.62,8.62,0,0,0-5.52-4.08,8.76,8.76,0,0,0-10.6,6.5,9,9,0,0,0,6.59,10.79,8.7,8.7,0,0,0,10.62-6.47A8.63,8.63,0,0,0,471.79,84.94Z" fill="#fff"/></svg>