<svg xmlns="http://www.w3.org/2000/svg" viewBox="0 0 64 64"><title>instagram</title><path d="M50,55.18H14a4.5,4.5,0,0,1-4.48-4.46V13.32A4.5,4.5,0,0,1,14,8.82H50a4.5,4.5,0,0,1,4.48,4.5V50.72A4.5,4.5,0,0,1,50,55.18Zm-8.55-3.38a9.75,9.75,0,0,0,9.66-9.7v-20a9.7,9.7,0,0,0-9.66-9.66H22.65A9.7,9.7,0,0,0,13,22.07v20a9.74,9.74,0,0,0,9.66,9.7Z"/><path d="M44.53,31.86A12.41,12.41,0,1,1,32.12,19.44,12.41,12.41,0,0,1,44.53,31.86ZM32,23.74a8.14,8.14,0,1,0,8.14,8.14A8.14,8.14,0,0,0,32,23.74Z"/><circle cx="44.73" cy="19.25" r="2.94"/></svg>