<svg xmlns="http://www.w3.org/2000/svg" viewBox="0 0 64 64"><title>icon</title><path d="M45.49,49.34h-27A3.37,3.37,0,0,1,15.14,46V18a3.37,3.37,0,0,1,3.37-3.37h27A3.37,3.37,0,0,1,48.86,18V46A3.37,3.37,0,0,1,45.49,49.34Zm-6.4-2.53a7.3,7.3,0,0,0,7.23-7.26v-15a7.26,7.26,0,0,0-7.23-7.23H25a7.26,7.26,0,0,0-7.23,7.23v15A7.29,7.29,0,0,0,25,46.81Z"/><path d="M41.38,31.88a9.29,9.29,0,1,1-9.29-9.3A9.3,9.3,0,0,1,41.38,31.88ZM32,25.8a6.09,6.09,0,1,0,6.09,6.09A6.09,6.09,0,0,0,32,25.8Z"/><circle cx="41.53" cy="22.44" r="2.2"/></svg>