<svg xmlns="http://www.w3.org/2000/svg" viewBox="0 0 64 64"><title>pinterest</title><path d="M32.74,16.12c-8.66,0-13,6.21-13,11.39,0,3.14,1.19,5.93,3.73,7a.63.63,0,0,0,.91-.45c.08-.32.28-1.13.37-1.47a.88.88,0,0,0-.26-1A5.26,5.26,0,0,1,23.26,28a8.64,8.64,0,0,1,9-8.73c4.9,0,7.59,3,7.59,7,0,5.26-2.33,9.7-5.78,9.7a2.82,2.82,0,0,1-2.88-3.51c.55-2.31,1.61-4.81,1.61-6.47a2.44,2.44,0,0,0-2.46-2.74c-1.95,0-3.52,2-3.52,4.72a7,7,0,0,0,.59,2.89L25,40.74A20.37,20.37,0,0,0,25,47.68a.24.24,0,0,0,.43.1,19.45,19.45,0,0,0,3.29-6c.23-.81,1.28-5,1.28-5a5.23,5.23,0,0,0,4.45,2.27c5.86,0,9.84-5.34,9.84-12.5C44.29,21.16,39.7,16.12,32.74,16.12Z"/></svg>