<svg xmlns="http://www.w3.org/2000/svg" viewBox="0 0 64 64"><title>pinterest</title><path d="M33.18,6.13C19.07,6.13,12,16.24,12,24.68c0,5.12,1.94,9.66,6.08,11.41a1,1,0,0,0,1.48-.73c.13-.52.46-1.84.6-2.4a1.43,1.43,0,0,0-.42-1.63,8.57,8.57,0,0,1-2-5.85A14.08,14.08,0,0,1,31.65,11.25h.75c8,0,12.37,4.89,12.37,11.41,0,8.57-3.8,15.81-9.42,15.81a4.6,4.6,0,0,1-4.69-5.72c.9-3.76,2.62-7.84,2.62-10.54a4,4,0,0,0-4-4.46c-3.18,0-5.74,3.26-5.74,7.69a11.41,11.41,0,0,0,1,4.71l-3.93,16.1a33.19,33.19,0,0,0,0,11.31.39.39,0,0,0,.7.16,31.69,31.69,0,0,0,5.36-9.78c.37-1.32,2.09-8.15,2.09-8.15A8.52,8.52,0,0,0,36,43.49c9.55,0,16-8.7,16-20.37C52,14.34,44.52,6.13,33.18,6.13Z"/></svg>