<svg xmlns="http://www.w3.org/2000/svg" viewBox="0 0 64 64"><title>twitter</title><path d="M57.3,16.34a20.76,20.76,0,0,1-6,1.64,10.42,10.42,0,0,0,4.57-5.8,20.8,20.8,0,0,1-6.52,2.57,10.41,10.41,0,0,0-17.77,9.48A29.5,29.5,0,0,1,10.23,13.35a10.41,10.41,0,0,0,3.22,13.89,10.35,10.35,0,0,1-4.71-1.3v.13a10.41,10.41,0,0,0,8.34,10.15,10.41,10.41,0,0,1-4.7.17,10.41,10.41,0,0,0,9.71,7.25,20.85,20.85,0,0,1-12.9,4.45,21.08,21.08,0,0,1-2.48-.14,29.4,29.4,0,0,0,15.95,4.67c19.12,0,29.57-15.84,29.57-29.59V21.67A21.12,21.12,0,0,0,57.3,16.34Z"/></svg>