<svg xmlns="http://www.w3.org/2000/svg" viewBox="0 0 64 64"><title>icon</title><path d="M49.47,21.16a14.32,14.32,0,0,1-4.12,1.13,7.19,7.19,0,0,0,3.15-4A14.35,14.35,0,0,1,44,20.06,7.18,7.18,0,0,0,31.74,26.6,20.35,20.35,0,0,1,17,19.1a7.18,7.18,0,0,0,2.22,9.58,7.14,7.14,0,0,1-3.25-.9s0,.06,0,.09a7.18,7.18,0,0,0,5.75,7,7.18,7.18,0,0,1-3.24.12,7.18,7.18,0,0,0,6.7,5,14.38,14.38,0,0,1-8.9,3.07,14.54,14.54,0,0,1-1.71-.1,20.28,20.28,0,0,0,11,3.22c13.19,0,20.4-10.93,20.4-20.41q0-.47,0-.93A14.57,14.57,0,0,0,49.47,21.16Z"/></svg>